<svg xmlns="http://www.w3.org/2000/svg" width="118.367" height="37" viewBox="0 0 118.367 37">
  <g id="Group_664" data-name="Group 664" transform="translate(-37.149 -29.242)">
    <g id="Group_659" data-name="Group 659" transform="translate(101.212 42.655)">
      <path id="Path_237" data-name="Path 237" d="M115.979,46.011h2.646V53.89h4.736v2.276h-7.382Z" transform="translate(-115.979 -45.796)" fill="#ed1c24"/>
      <path id="Path_238" data-name="Path 238" d="M125.623,46.011h8.093V48.13h-5.448v1.778h4.978v2.047h-4.978V53.89h5.59v2.276h-8.236Z" transform="translate(-117.786 -45.796)" fill="#ed1c24"/>
      <path id="Path_239" data-name="Path 239" d="M145.846,56.117h-1.707l-.156-1.109a3.463,3.463,0,0,1-2.831,1.322,5,5,0,0,1-5.064-5.29,5,5,0,0,1,5.064-5.292c2.1,0,4.352,1.124,4.594,3.67H143.1c-.085-.867-.939-1.394-2.006-1.394-1.707,0-2.361,1.508-2.361,3.016s.654,3.014,2.361,3.014c1.309,0,2.191-.611,2.333-1.535h-1.849V50.555h4.267Z" transform="translate(-119.746 -45.747)" fill="#ed1c24"/>
      <path id="Path_240" data-name="Path 240" d="M153.662,45.747c3.2,0,5.007,2.348,5.007,5.292s-1.807,5.29-5.007,5.29-5.007-2.346-5.007-5.29S150.462,45.747,153.662,45.747Zm0,8.306c1.707,0,2.361-1.507,2.361-3.014s-.654-3.016-2.361-3.016-2.361,1.508-2.361,3.016S151.955,54.053,153.662,54.053Z" transform="translate(-122.1 -45.747)" fill="#ed1c24"/>
      <path id="Path_241" data-name="Path 241" d="M116.329,62.013h2.645v7.879h4.737v2.276h-7.382Z" transform="translate(-116.045 -48.794)" fill="#ed1c24"/>
      <path id="Path_242" data-name="Path 242" d="M125.973,62.013h8.093v2.119h-5.447V65.91H133.6v2.047h-4.978v1.935h5.59v2.276h-8.235Z" transform="translate(-117.851 -48.794)" fill="#ed1c24"/>
      <path id="Path_243" data-name="Path 243" d="M139.431,62.013h2.687l3.8,10.155h-2.759l-.626-1.82H138.99l-.64,1.82h-2.718Zm.171,6.371h2.3l-1.124-3.555h-.028Z" transform="translate(-119.661 -48.794)" fill="#ed1c24"/>
      <path id="Path_244" data-name="Path 244" d="M157.467,72.119H155.76l-.157-1.109a3.463,3.463,0,0,1-2.831,1.322,5.3,5.3,0,0,1,0-10.583c2.1,0,4.353,1.124,4.594,3.67h-2.645c-.085-.867-.939-1.394-2.006-1.394-1.707,0-2.361,1.507-2.361,3.016s.654,3.014,2.361,3.014c1.308,0,2.19-.611,2.333-1.535H153.2V66.557h4.267Z" transform="translate(-121.923 -48.745)" fill="#ed1c24"/>
      <path id="Path_245" data-name="Path 245" d="M169.508,67.971c0,2.944-1.351,4.41-4.423,4.41s-4.423-1.465-4.423-4.41V62.013h2.645v6.115c0,1.308.484,1.976,1.778,1.976s1.778-.668,1.778-1.976V62.013h2.645Z" transform="translate(-124.349 -48.794)" fill="#ed1c24"/>
      <path id="Path_246" data-name="Path 246" d="M172.667,62.013h8.093v2.119h-5.447V65.91h4.978v2.047h-4.978v1.935h5.59v2.276h-8.236Z" transform="translate(-126.598 -48.794)" fill="#ed1c24"/>
    </g>
    <g id="Group_661" data-name="Group 661" transform="translate(37.149 29.634)">
      <path id="Path_247" data-name="Path 247" d="M70.921,43.152a17.2,17.2,0,0,1,3.08.277l2.343-2.443a16.628,16.628,0,0,0-5.423-.885,15.365,15.365,0,0,0-8.535,2.423l2.042,1.935A16.23,16.23,0,0,1,70.921,43.152Z" transform="translate(-41.877 -31.668)" fill="#858688"/>
      <path id="Path_248" data-name="Path 248" d="M70.3,39.355a16.628,16.628,0,0,1,5.423.885l2.549-2.653A21.794,21.794,0,0,0,70.3,36.118,20.661,20.661,0,0,0,59.1,39.245l2.673,2.532A15.365,15.365,0,0,1,70.3,39.355Z" transform="translate(-41.26 -30.922)" fill="#fff"/>
      <path id="Path_249" data-name="Path 249" d="M57.789,52.063a7.265,7.265,0,0,1,1.156-2.474l-1.026-1.038a6.532,6.532,0,0,0-.316,1.987A6.362,6.362,0,0,0,57.789,52.063Z" transform="translate(-40.98 -33.251)" fill="#858688"/>
      <path id="Path_250" data-name="Path 250" d="M48.4,59.585l-.432,2.233,4.288-1.846a10.887,10.887,0,0,1-.48-1.914Z" transform="translate(-39.176 -35.032)" fill="#858688"/>
      <path id="Path_251" data-name="Path 251" d="M43.355,29.979,37.149,63.963l2.935.239,6.145-34.478Z" transform="translate(-37.149 -29.724)" fill="#858688"/>
      <path id="Path_252" data-name="Path 252" d="M64.9,49.535V46.788L60.39,42.515,58.348,40.58l-2.673-2.532-8.783-8.323L40.746,64.2l13.006-5.718a11.563,11.563,0,0,1-2.894-3.8L46.624,56.5l.424-2.223,2.744-14.3.229-1.2,2.266,2.28L55.2,43.994l1.251,1.261L61.6,49.686,56.6,51.976a11.786,11.786,0,0,0,4.9,3.082l6.231-2.8Z" transform="translate(-37.823 -29.724)" fill="#ed1c24"/>
      <path id="Path_253" data-name="Path 253" d="M89.632,42.116A10.556,10.556,0,0,1,93,49.628a9.394,9.394,0,0,1-.128,1.525A9.437,9.437,0,0,1,93,52.681a10.031,10.031,0,0,1-2.028,5.953l8.47-8.821-8.952-8.6Z" transform="translate(-46.981 -31.877)" fill="none"/>
      <path id="Path_254" data-name="Path 254" d="M83.69,47.669l-3.5,3.65,4.271,4.1A7.68,7.68,0,0,0,86.489,51.9,8.078,8.078,0,0,0,83.69,47.669Z" transform="translate(-45.211 -33.086)" fill="none"/>
      <path id="Path_255" data-name="Path 255" d="M87.292,51.543a6.4,6.4,0,0,0,.188-1.525,6.954,6.954,0,0,0-1.527-4.243l-1.479,1.533A8.118,8.118,0,0,1,87.292,51.543Z" transform="translate(-46.014 -32.731)" fill="#858688"/>
      <path id="Path_256" data-name="Path 256" d="M90.145,66.857l-3.507-3.369a17.4,17.4,0,0,1-1.787,1.065l5.294,5.082,16.323-17-.018-2.754Z" transform="translate(-46.085 -33.5)" fill="#858688"/>
      <path id="Path_257" data-name="Path 257" d="M75.551,55.594l-2.888-2.773-2.209-2.111-.008,2.756,3.107,2.984L76.522,59.3a15.041,15.041,0,0,0,2.155-.707Z" transform="translate(-43.386 -33.656)" fill="#858688"/>
      <path id="Path_258" data-name="Path 258" d="M88.4,37.8l-2.324,2.419L83.514,42.89l-1.748,1.819-3.311,3.448,1.387,1.332,3.523-3.669,1.473-1.534,2.7-2.81.863-.9,8.976,8.6,1.389-1.441Z" transform="translate(-44.887 -31.237)" fill="#858688"/>
      <path id="Path_259" data-name="Path 259" d="M82.581,42.323l-2.7,2.81A6.923,6.923,0,0,1,81.4,49.371a6.4,6.4,0,0,1-.188,1.525,7.68,7.68,0,0,1-2.032,3.524,11.869,11.869,0,0,1-3.955,2.6,15.041,15.041,0,0,1-2.155.707,17.008,17.008,0,0,1-4.091.494,16.723,16.723,0,0,1-4.965-.737,12.55,12.55,0,0,1-5.147-2.978,8.7,8.7,0,0,1-1.221-1.516,7.124,7.124,0,0,1-.9-2.1,6.362,6.362,0,0,1-.187-1.525,6.532,6.532,0,0,1,.316-1.987l-3.1-3.137a9.925,9.925,0,0,0-1.776,5.588,9.485,9.485,0,0,0,.129,1.525,10.047,10.047,0,0,0,1.268,3.455,11.725,11.725,0,0,0,1.1,1.568,14.936,14.936,0,0,0,4.145,3.407,21,21,0,0,0,10.338,2.6,21.912,21.912,0,0,0,7.574-1.317,19.109,19.109,0,0,0,1.991-.866A16.134,16.134,0,0,0,82.4,57.517a11.047,11.047,0,0,0,3.424-6.156,9.393,9.393,0,0,0,.128-1.525A10.556,10.556,0,0,0,82.581,42.323Z" transform="translate(-39.929 -32.084)" fill="#fff"/>
      <path id="Path_260" data-name="Path 260" d="M75.538,51.7l3.116,2.992a11.969,11.969,0,0,0,3.966-2.595l-4.271-4.1L76.961,46.66l3.294-3.429L82,41.411l2.564-2.672,2.325-2.419,10.34,9.928-1.388,1.445-8.47,8.822a13.933,13.933,0,0,1-3.418,3.243l3.481,3.359,16.324-17-17-16.323-6.367,6.631-2.548,2.654L75.5,41.519l-5.039,5.273Z" transform="translate(-43.388 -29.737)" fill="#0055a5"/>
      <path id="Path_261" data-name="Path 261" d="M73.157,53.333" transform="translate(-43.894 -34.147)" fill="#0055a5"/>
      <g id="Group_660" data-name="Group 660" transform="translate(11.879 9.049)">
        <path id="Path_262" data-name="Path 262" d="M57.669,52.8l.091.15a8.736,8.736,0,0,0,.916,1.121l5.078-2.347L52.084,40.859l-.318,1.681,9.156,9.065Z" transform="translate(-51.766 -40.859)" fill="#858688"/>
      </g>
      <path id="Path_263" data-name="Path 263" d="M85.947,51.449a9.394,9.394,0,0,1-.128,1.525A11.047,11.047,0,0,1,82.4,59.131a16.134,16.134,0,0,1-3.863,2.692,19.108,19.108,0,0,1-1.991.866A21.912,21.912,0,0,1,68.967,64a21,21,0,0,1-10.338-2.6A14.936,14.936,0,0,1,54.485,58a11.725,11.725,0,0,1-1.1-1.568,10.047,10.047,0,0,1-1.268-3.455,9.485,9.485,0,0,1-.129-1.525c0-.163.012-.323.02-.483,0-.009,0-.021-.006-.028-.083.5-.015,3.047-.015,3.564a9.413,9.413,0,0,0,.312,2.393,9.941,9.941,0,0,0,.644,1.763,12.258,12.258,0,0,0,3,3.9,19.8,19.8,0,0,0,13.025,4.5,21.236,21.236,0,0,0,9.75-2.278A17.332,17.332,0,0,0,80.5,63.713a14,14,0,0,0,3.42-3.259A10.031,10.031,0,0,0,85.947,54.5c0-.454.04-2.609,0-3.464C85.935,50.92,85.947,51.3,85.947,51.449Z" transform="translate(-39.923 -33.698)" fill="#858688"/>
    </g>
    <path id="Path_264" data-name="Path 264" d="M161.541,46.6a.906.906,0,1,1,0,1.812.906.906,0,0,1,0-1.812Zm0,1.7a.794.794,0,1,0-.793-.8A.791.791,0,0,0,161.541,48.3Zm-.351-1.259.143-.013c.093-.007.131-.011.168-.011.3,0,.445.115.445.336a.248.248,0,0,1-.175.258l-.015,0c.01.006.015.01.018.018a2.569,2.569,0,0,1,.223.328h-.34c-.069-.129-.09-.165-.178-.311v.311h-.291Zm.326.435c.08,0,.125-.038.125-.111s-.041-.11-.123-.11a.146.146,0,0,0-.037,0v.214A.122.122,0,0,0,161.516,47.48Z" transform="translate(-23.133 -3.252)" fill="#2c2c2c"/>
    <g id="Group_663" data-name="Group 663" transform="translate(101.24 29.242)">
      <path id="Path_265" data-name="Path 265" d="M118.433,29.492h7.19l-.677,2.769H121.5l-.341,1.455h3.6l-.626,2.566H120.58l-.852,3.645h-3.715Z" transform="translate(-116.014 -29.289)" fill="#2c2c2c"/>
      <path id="Path_266" data-name="Path 266" d="M128.484,29.492H132.2L129.78,39.926h-3.715Z" transform="translate(-117.897 -29.289)" fill="#2c2c2c"/>
      <path id="Path_267" data-name="Path 267" d="M134.255,29.508l.238-.032c1.193-.141,2.675-.234,3.494-.234a8.623,8.623,0,0,1,3.221.484,2.587,2.587,0,0,1,1.636,2.457,3.882,3.882,0,0,1-.938,2.566,3.657,3.657,0,0,1-1.993,1.2l-.239.078a2.112,2.112,0,0,1,.188.157,24.52,24.52,0,0,1,1.892,3.691h-4.09c-.528-1.486-.681-1.877-1.38-3.567l-.818,3.567h-3.612ZM137,34.42a1.807,1.807,0,0,0,2.028-1.7c0-.531-.393-.8-1.159-.8a2.567,2.567,0,0,0-.579.063l-.562,2.41A1.459,1.459,0,0,0,137,34.42Z" transform="translate(-118.981 -29.242)" fill="#2c2c2c"/>
      <path id="Path_268" data-name="Path 268" d="M156.019,29.492h9.012l-.63,3.021h-2.674l-1.772,7.413H156.24l1.772-7.413h-2.9Z" transform="translate(-123.338 -29.289)" fill="#2c2c2c"/>
      <path id="Path_269" data-name="Path 269" d="M163,40.037a.906.906,0,1,1,0,1.811.906.906,0,0,1,0-1.811Zm0,1.7a.794.794,0,1,0-.792-.8A.792.792,0,0,0,163,41.736Zm-.35-1.257c.046,0,.053-.007.144-.015s.129-.011.168-.011c.3,0,.445.116.445.336a.249.249,0,0,1-.175.259l-.015,0c.011.007.015.011.018.018a2.612,2.612,0,0,1,.224.329h-.34c-.07-.129-.091-.165-.179-.311V41.4h-.291Zm.326.434c.08,0,.126-.038.126-.112s-.042-.109-.123-.109a.125.125,0,0,0-.038,0v.214A.128.128,0,0,0,162.977,40.913Z" transform="translate(-124.647 -31.264)" fill="#2c2c2c"/>
      <g id="Group_662" data-name="Group 662" transform="translate(23.137)">
        <path id="Path_270" data-name="Path 270" d="M144.484,39.614a11.684,11.684,0,0,0,3.254.484,5.705,5.705,0,0,0,3.51-1.017,3.882,3.882,0,0,0,1.738-2.956,2.314,2.314,0,0,0-.852-1.8,7.922,7.922,0,0,0-1.772-1.033l-.733-.344c-.238-.125-.358-.25-.358-.391,0-.375.477-.657,1.125-.657a7.429,7.429,0,0,1,2.165.5l.761-2.824a9.213,9.213,0,0,0-2.432-.336c-3.033,0-5.368,1.658-5.368,3.8,0,1.126.75,1.924,2.624,2.8.886.406,1.039.516,1.039.8,0,.422-.46.688-1.21.688A8.293,8.293,0,0,1,145.3,36.7h0Z" transform="translate(-144.484 -29.242)" fill="#2c2c2c"/>
      </g>
    </g>
  </g>
</svg>
